<svg xmlns="http://www.w3.org/2000/svg" viewBox="0 0 64 64" role="img" aria-labelledby="helpcat-77-title" shape-rendering="geometricPrecision">
  <title id="helpcat-77-title">77 极简黑眼斑猫咪标志</title>
  <g stroke="#171717" stroke-width="1.5" stroke-linecap="round" stroke-linejoin="round">
    <path fill="#FFFFFF" d="M13 24 16 8l12 11H13Z"/>
    <path fill="#FFFFFF" d="m36 19 12-11 3 16H36Z"/>
    <path fill="#FFFFFF" d="M12 26c0-7 8-11 20-11s20 4 20 11v12c0 11-8.9 18-20 18s-20-7-20-18Z"/>
    <path fill="#171717" d="M35.5 20.5c4-3 10.5-1.8 13.2 2.7 2.6 4.4.5 10.8-4.8 13.8-4.7 2.7-10.6.2-12-4.8-1.1-4.2.3-9.2 3.6-11.7Z"/>
    <ellipse cx="24" cy="31" rx="2.25" ry="3" fill="#171717" stroke="none"/>
    <ellipse cx="41" cy="30.5" rx="2.25" ry="3" fill="#171717" stroke="#FFFFFF"/>
    <path fill="#D99386" d="m28.5 39 3.5 3.5 3.5-3.5Z"/>
    <path fill="none" d="M32 42.5v2.2m0 0c-1.3 1.6-3.1 2.1-4.8 1.2m4.8-1.2c1.3 1.6 3.1 2.1 4.8 1.2"/>
  </g>
</svg>
